<svg xmlns="http://www.w3.org/2000/svg" viewBox="0 0 13.89 13.89"><defs><style>.cls-1{fill:#ce97ff;}</style></defs><title>Asset 5</title><g id="Layer_2" data-name="Layer 2"><g id="conclusao"><path class="cls-1" d="M6.94,5.49A1.43,1.43,0,1,0,8.37,6.92,1.43,1.43,0,0,0,6.94,5.49Zm0,0A1.43,1.43,0,1,0,8.37,6.92,1.43,1.43,0,0,0,6.94,5.49ZM9.33,3.17H4.57A1.37,1.37,0,0,0,3.19,4.54V9.29a1.38,1.38,0,0,0,1.38,1.38H9.33A1.37,1.37,0,0,0,10.7,9.29V4.54A1.37,1.37,0,0,0,9.33,3.17ZM6.94,9.39A2.47,2.47,0,1,1,9.41,6.92,2.47,2.47,0,0,1,6.94,9.39ZM9.5,5a.59.59,0,0,1-.59-.59.59.59,0,0,1,1.17,0A.59.59,0,0,1,9.5,5Zm-2.56.53A1.43,1.43,0,1,0,8.37,6.92,1.43,1.43,0,0,0,6.94,5.49Z"/><path class="cls-1" d="M10.82,0H3.07A3.08,3.08,0,0,0,0,3.07v7.75a3.07,3.07,0,0,0,3.07,3.07h7.75a3.06,3.06,0,0,0,3.07-3.07V3.07A3.07,3.07,0,0,0,10.82,0Zm.92,9.29a2.41,2.41,0,0,1-2.41,2.42H4.57A2.42,2.42,0,0,1,2.15,9.29V4.54A2.41,2.41,0,0,1,4.57,2.13H9.33a2.41,2.41,0,0,1,2.41,2.41Z"/></g></g></svg>