<svg xmlns="http://www.w3.org/2000/svg" viewBox="0 0 13.89 13.89"><defs><style>.cls-1{fill:#ce97ff;}</style></defs><title>Asset 6</title><g id="Layer_2" data-name="Layer 2"><g id="conclusao"><polygon class="cls-1" points="7.1 6.06 4.33 3.87 9.87 3.87 7.1 6.06"/><polygon class="cls-1" points="7.1 7.54 10.61 4.83 10.61 9.72 3.59 9.72 3.59 4.83 7.1 7.54"/><path class="cls-1" d="M10.82,0H3.07A3.08,3.08,0,0,0,0,3.07v7.75a3.07,3.07,0,0,0,3.07,3.07h7.75a3.06,3.06,0,0,0,3.07-3.07V3.07A3.07,3.07,0,0,0,10.82,0Zm1,9.43a.88.88,0,0,1-.89.88H3.3a.87.87,0,0,1-.88-.88V4.17a.86.86,0,0,1,.88-.88h7.6a.88.88,0,0,1,.89.88Z"/></g></g></svg>