<svg xmlns="http://www.w3.org/2000/svg" viewBox="0 0 16.06 16.73"><defs><style>.cls-1{fill:#674a9e;}</style></defs><title>Asset 6</title><g id="Layer_2" data-name="Layer 2"><g id="conclusao"><path class="cls-1" d="M12.26,0H3.79A3.79,3.79,0,0,0,0,3.79v9.15a3.79,3.79,0,0,0,3.79,3.79h8.47a3.8,3.8,0,0,0,3.8-3.79V3.79A3.8,3.8,0,0,0,12.26,0Zm1.23,8.69c-.05.19-.19.26-.35.34-1.09.52-2.19,1-3.29,1.53s-2.21,1-3.32,1.53c-.74.34-1.48.67-2.21,1a6.13,6.13,0,0,1-.61.18h-.2a.52.52,0,0,1-.11-.79c.26-.37.54-.73.82-1.09.63-.85,1.26-1.71,1.91-2.55a.44.44,0,0,0,0-.65C5.25,7.07,4.38,5.9,3.5,4.73a1,1,0,0,1-.22-.45c0-.36.16-.56.52-.49A2.82,2.82,0,0,1,4.31,4C6,4.79,7.73,5.57,9.45,6.37l3.69,1.71c.15.08.3.15.35.34Z"/></g></g></svg>