<svg xmlns="http://www.w3.org/2000/svg" viewBox="0 0 13.89 13.89"><defs><style>.cls-1{fill:#ce97ff;}</style></defs><title>Asset 7</title><g id="Layer_2" data-name="Layer 2"><g id="conclusao"><path class="cls-1" d="M13.27,1.22a3.13,3.13,0,0,0-.83-.75A3,3,0,0,0,10.82,0H3.07A3.06,3.06,0,0,0,.61,1.24,3,3,0,0,0,0,3.07v7.75a3.1,3.1,0,0,0,.61,1.84,3.27,3.27,0,0,0,.44.47,3.08,3.08,0,0,0,2,.76h7.75a3.08,3.08,0,0,0,2-.76,2.67,2.67,0,0,0,.43-.46,3,3,0,0,0,.62-1.85V3.07A3,3,0,0,0,13.27,1.22Zm-2.61,4a5.45,5.45,0,0,1-8.37,4.6,4.38,4.38,0,0,0,.5,0A3.71,3.71,0,0,0,5.1,9.06,1.9,1.9,0,0,1,3.34,7.71a1.8,1.8,0,0,0,.85,0,1.82,1.82,0,0,1-1.51-1.9A1.8,1.8,0,0,0,3.5,6,1.85,1.85,0,0,1,3,3.5a5.75,5.75,0,0,0,3.93,2,1.54,1.54,0,0,1,0-.43A1.91,1.91,0,0,1,8.75,3.14a1.89,1.89,0,0,1,1.39.61c.1,0,.18-.07.28-.09a7.34,7.34,0,0,0,.93-.38,2,2,0,0,1-.83,1.05,4.32,4.32,0,0,0,1.07-.28,4.45,4.45,0,0,1-.94,1C10.65,5.1,10.66,5.18,10.66,5.25Z"/></g></g></svg>