<svg xmlns="http://www.w3.org/2000/svg" viewBox="0 0 13.89 13.89"><defs><style>.cls-1{fill:#ce97ff;}</style></defs><title>Asset 8</title><g id="Layer_2" data-name="Layer 2"><g id="conclusao"><path class="cls-1" d="M13.19,1.12A4.16,4.16,0,0,0,12.77.7,3.08,3.08,0,0,0,10.82,0H3.07A3.1,3.1,0,0,0,1.12.7a4.36,4.36,0,0,0-.43.43A3,3,0,0,0,0,3.07v7.75a3.06,3.06,0,0,0,.69,1.94,4.57,4.57,0,0,0,.44.44,3.08,3.08,0,0,0,1.94.69h7.75a3,3,0,0,0,1.94-.69,4.36,4.36,0,0,0,.43-.43,3.1,3.1,0,0,0,.7-1.95V3.07A3.08,3.08,0,0,0,13.19,1.12ZM2.58,6.94a4.37,4.37,0,1,1,2.23,3.8l-2.24.58.61-2.17A4.42,4.42,0,0,1,2.58,6.94ZM4,9l-.36,1.24L4.93,10l.13.08A3.62,3.62,0,1,0,7,3.31,3.62,3.62,0,0,0,3.9,8.9Zm.78-3.42A1.24,1.24,0,0,1,5.2,5a.33.33,0,0,1,.24-.08h.29a.14.14,0,0,1,.11.1l.42,1a.16.16,0,0,1,0,.15l-.36.42a.08.08,0,0,0,0,.12A2.92,2.92,0,0,0,7.46,8a.08.08,0,0,0,.11,0L8,7.49a.13.13,0,0,1,.18,0l1,.44a.14.14,0,0,1,.08.16l0,.21a.89.89,0,0,1-.4.58A1.21,1.21,0,0,1,7.7,9a4.65,4.65,0,0,1-2.47-1.8A2,2,0,0,1,4.77,5.62Z"/></g></g></svg>